<svg xmlns="http://www.w3.org/2000/svg" viewBox="0 0 512 512" style="enable-background:new 0 0 512 512;" xml:space="preserve" width="100%" height="100%">
<g>
	<g>
		<path d="M0,65.699v307.333h177v73.27l146.542-73.27H512V65.699H0z M247.121,266.9c-3.885,3.824-8.356,7.03-13.412,9.62    c-5.059,2.59-10.424,4.564-16.095,5.92c-5.674,1.355-11.224,2.035-16.65,2.035c-9.499,0-18.223-1.942-26.178-5.827    s-14.8-9.033-20.535-15.448c-5.735-6.411-10.175-13.69-13.32-21.83c-3.145-8.14-4.717-16.401-4.717-24.79    c0-7.891,1.48-15.754,4.44-23.587c2.96-7.831,7.276-14.829,12.95-20.997c5.672-6.166,12.58-11.161,20.72-14.985    c8.14-3.821,17.39-5.735,27.75-5.735c12.331,0,23.033,2.653,32.098,7.955c9.065,5.304,15.817,12.21,20.258,20.72l-23.311,16.28    c-1.48-3.452-3.362-6.319-5.643-8.602c-2.283-2.281-4.781-4.131-7.492-5.55c-2.714-1.417-5.489-2.405-8.325-2.96    c-2.838-0.555-5.614-0.833-8.325-0.833c-5.799,0-10.854,1.174-15.17,3.515c-4.318,2.344-7.894,5.365-10.73,9.065    c-2.838,3.7-4.934,7.895-6.29,12.58c-1.358,4.688-2.035,9.435-2.035,14.245c0,5.179,0.801,10.174,2.405,14.984    c1.602,4.81,3.914,9.065,6.938,12.765c3.021,3.7,6.66,6.631,10.915,8.787c4.255,2.16,9.033,3.238,14.337,3.238    c2.711,0,5.519-0.338,8.417-1.018c2.896-0.676,5.671-1.726,8.325-3.145c2.651-1.417,5.087-3.267,7.308-5.55    c2.22-2.281,4.006-5.088,5.365-8.417l24.791,14.615C253.935,258.761,251.007,263.079,247.121,266.9z M369.408,266.902    c-3.885,3.824-8.356,7.03-13.412,9.62c-5.059,2.59-10.424,4.564-16.096,5.92c-5.674,1.355-11.224,2.035-16.649,2.035    c-9.499,0-18.223-1.942-26.178-5.827c-7.957-3.886-14.802-9.034-20.537-15.449c-5.734-6.411-10.175-13.69-13.319-21.83    c-3.146-8.14-4.718-16.401-4.718-24.79c0-7.891,1.479-15.754,4.439-23.587c2.96-7.831,7.276-14.829,12.95-20.997    c5.672-6.166,12.58-11.161,20.721-14.985c8.14-3.821,17.39-5.735,27.75-5.735c12.331,0,23.032,2.653,32.097,7.955    c9.065,5.304,15.817,12.21,20.258,20.72l-23.309,16.28c-1.48-3.452-3.362-6.319-5.643-8.602c-2.284-2.281-4.781-4.131-7.493-5.55    c-2.714-1.417-5.489-2.405-8.324-2.96c-2.839-0.555-5.614-0.833-8.325-0.833c-5.799,0-10.854,1.174-15.17,3.515    c-4.319,2.344-7.895,5.365-10.73,9.065c-2.839,3.7-4.935,7.895-6.29,12.58c-1.358,4.688-2.035,9.435-2.035,14.245    c0,5.18,0.801,10.175,2.405,14.985c1.602,4.81,3.914,9.065,6.938,12.765c3.02,3.7,6.66,6.631,10.915,8.787    c4.255,2.16,9.033,3.238,14.338,3.238c2.711,0,5.518-0.338,8.417-1.018c2.896-0.676,5.672-1.726,8.325-3.145    c2.65-1.417,5.088-3.267,7.308-5.55c2.22-2.281,4.006-5.088,5.365-8.417l24.79,14.615    C376.221,258.762,373.293,263.079,369.408,266.902z" fill="#006DF0"/>
	</g>
</g>
<g>
</g>
<g>
</g>
<g>
</g>
<g>
</g>
<g>
</g>
<g>
</g>
<g>
</g>
<g>
</g>
<g>
</g>
<g>
</g>
<g>
</g>
<g>
</g>
<g>
</g>
<g>
</g>
<g>
</g>
</svg>
