<?xml version="1.0"?>
<svg xmlns="http://www.w3.org/2000/svg" role="img" height="100%" viewBox="1 1 511 511.9995" width="100%" xml:space="preserve">
	<path d="m232.171875 337.847656c1.347656 5.5 2.84375 10.726563 4.480469 15.636719 8.886718 26.664063 17.914062 32.117187 19.84375 32.117187 1.929687 0 10.957031-5.453124 19.847656-32.117187 1.632812-4.910156 3.128906-10.136719 4.480469-15.636719-7.984375-3.125-16.117188-6.640625-24.328125-10.527344-8.207032 3.886719-16.34375 7.402344-24.324219 10.527344zm0 0" fill="#006DF0"/><path d="m280.824219 174.152344c-1.351563-5.5-2.847657-10.730469-4.480469-15.636719-8.890625-26.667969-17.917969-32.117187-19.847656-32.117187-1.929688 0-10.957032 5.449218-19.84375 32.117187-1.636719 4.90625-3.132813 10.136719-4.480469 15.632813 7.980469 3.128906 16.117187 6.644531 24.324219 10.53125 8.210937-3.886719 16.34375-7.402344 24.328125-10.527344zm0 0" fill="#006DF0"/><path d="m173.441406 275.867188c-4.082031 3.914062-7.859375 7.820312-11.289062 11.6875-18.648438 21.03125-18.855469 31.570312-17.890625 33.246093.964843 1.671875 10.199219 6.765625 37.738281 1.128907 5.066406-1.039063 10.339844-2.359376 15.773438-3.9375-1.285157-8.476563-2.308594-17.277344-3.042969-26.324219-7.472657-5.167969-14.59375-10.453125-21.289063-15.800781zm0 0" fill="#006DF0"/><path d="m144.261719 191.199219c-.964844 1.671875-.757813 12.214843 17.890625 33.246093 3.429687 3.867188 7.203125 7.773438 11.289062 11.6875 6.695313-5.347656 13.816406-10.636718 21.289063-15.800781.734375-9.050781 1.757812-17.847656 3.042969-26.324219-5.433594-1.578124-10.707032-2.898437-15.773438-3.9375-25.917969-5.300781-36.441406-1.113281-37.738281 1.128907zm0 0" fill="#006DF0"/><path d="m339.554688 275.867188c-6.699219 5.347656-13.820313 10.636718-21.292969 15.800781-.738281 9.046875-1.757813 17.847656-3.042969 26.320312 5.4375 1.582031 10.710938 2.902344 15.78125 3.9375 27.539062 5.636719 36.769531.542969 37.734375-1.128906.96875-1.671875.761719-12.214844-17.886719-33.242187-3.429687-3.867188-7.207031-7.773438-11.292968-11.6875zm0 0" fill="#006DF0"/><path d="m509.726562 218.433594c-.875-5.894532-5.160156-10.714844-10.914062-12.273438l-30.265625-8.203125c-4.871094-17.796875-11.925781-34.839843-21.066406-50.859375l15.601562-27.199218c2.96875-5.171876 2.589844-11.609376-.960937-16.398438-15.019532-20.246094-32.894532-38.121094-53.128906-53.121094-4.789063-3.550781-11.226563-3.929687-16.398438-.960937l-27.195312 15.597656c-16.019532-9.140625-33.0625-16.199219-50.855469-21.066406l-8.207031-30.265625c-1.5625-5.753906-6.378907-10.035156-12.277344-10.910156-24.921875-3.699219-50.195313-3.699219-75.117188 0-5.898437.875-10.714844 5.15625-12.277344 10.910156l-8.207031 30.265625c-17.796875 4.867187-34.835937 11.925781-50.855469 21.070312l-27.203124-15.601562c-5.171876-2.96875-11.609376-2.589844-16.398438.960937-20.234375 15.007813-38.105469 32.878906-53.121094 53.121094-3.550781 4.789062-3.929687 11.226562-.960937 16.398438l15.597656 27.199218c-9.144531 16.03125-16.203125 33.070313-21.0625 50.859375l-30.265625 8.203125c-5.753906 1.558594-10.039062 6.378906-10.914062 12.273438-3.699219 24.929687-3.699219 50.203125 0 75.128906.875 5.898438 5.160156 10.71875 10.914062 12.277344l30.265625 8.203125c4.859375 17.785156 11.917969 34.828125 21.0625 50.859375l-15.601563 27.195312c-2.964843 5.175782-2.585937 11.613282.964844 16.402344 15.015625 20.242188 32.886719 38.113281 53.121094 53.117188 4.789062 3.554687 11.226562 3.929687 16.394531.964843l27.207031-15.601562c16.019532 9.140625 33.058594 16.203125 50.855469 21.070312l8.207031 30.265625c1.558594 5.75 6.378907 10.035156 12.273438 10.910156 12.464844 1.847657 25.011719 2.773438 37.5625 2.773438 12.546875 0 25.097656-.925781 37.558594-2.773438 5.898437-.875 10.714844-5.160156 12.277344-10.910156l8.207031-30.265625c17.792969-4.867187 34.835937-11.929687 50.855469-21.070312l27.195312 15.601562c5.171875 2.964844 11.609375 2.589844 16.398438-.960937 20.234374-15.003906 38.109374-32.875 53.128906-53.121094 3.550781-4.789062 3.929687-11.226562.960937-16.402344l-15.601562-27.195312c9.140625-16.019532 16.195312-33.0625 21.066406-50.859375l30.265625-8.203125c5.753906-1.558594 10.039062-6.378906 10.914062-12.277344 3.695313-24.925781 3.695313-50.199219 0-75.128906zm-136.433593 49.214844c30.421875 34.308593 28.441406 55.996093 21.425781 68.152343-14.421875 24.972657-53.59375 18.820313-69.734375 15.519531-5.0625-1.039062-10.304687-2.332031-15.667969-3.839843-1.378906 5.398437-2.878906 10.585937-4.511718 15.488281-14.5 43.5-34.273438 52.628906-48.308594 52.628906s-33.804688-9.128906-48.304688-52.628906c-1.636718-4.902344-3.132812-10.085938-4.511718-15.484375-5.367188 1.503906-10.605469 2.796875-15.667969 3.835937-16.152344 3.304688-55.3125 9.453126-69.730469-15.519531-7.019531-12.15625-8.996094-33.84375 21.425781-68.152343 3.425781-3.863282 7.152344-7.757813 11.140625-11.648438-3.988281-3.894531-7.714844-7.785156-11.140625-11.652344-30.421875-34.304687-28.441406-55.996094-21.425781-68.148437 7.019531-12.152344 24.8125-24.710938 69.730469-15.519531 5.0625 1.035156 10.300781 2.332031 15.667969 3.835937 1.378906-5.398437 2.875-10.585937 4.511718-15.484375 14.5-43.5 34.269532-52.632812 48.304688-52.632812s33.808594 9.132812 48.308594 52.632812c1.632812 4.902344 3.128906 10.085938 4.511718 15.484375 5.363282-1.503906 10.605469-2.800781 15.667969-3.835937 44.921875-9.191407 62.714844 3.367187 69.734375 15.519531 7.015625 12.152343 8.996094 33.84375-21.425781 68.148437-3.429688 3.867188-7.15625 7.757813-11.140625 11.652344 3.984375 3.894531 7.710937 7.785156 11.140625 11.648438zm0 0" fill="#006DF0"/><path d="m273.097656 227.25c-5.535156-3.195312-11.078125-6.222656-16.601562-9.089844-5.523438 2.867188-11.066406 5.894532-16.601563 9.089844-5.535156 3.195312-10.925781 6.484375-16.167969 9.832031-.28125 6.214844-.429687 12.527344-.429687 18.917969s.148437 12.703125.429687 18.917969c5.242188 3.351562 10.632813 6.636719 16.167969 9.832031 5.539063 3.199219 11.082031 6.222656 16.601563 9.089844 5.523437-2.867188 11.066406-5.890625 16.601562-9.089844 5.535156-3.195312 10.925782-6.480469 16.167969-9.828125.277344-6.21875.429687-12.53125.429687-18.921875s-.152343-12.703125-.429687-18.917969c-5.242187-3.351562-10.632813-6.636719-16.167969-9.832031zm0 0" fill="#006DF0"/><path d="m368.734375 191.199219c-1.292969-2.242188-11.855469-6.425781-37.734375-1.125-5.070312 1.035156-10.34375 2.355469-15.78125 3.933593 1.28125 8.476563 2.304688 17.273438 3.042969 26.324219 7.472656 5.164063 14.59375 10.449219 21.292969 15.800781 4.085937-3.914062 7.863281-7.820312 11.292968-11.6875 18.648438-21.03125 18.855469-31.574218 17.886719-33.246093zm0 0" fill="#006DF0"/>
</svg>
